<svg width="1200" height="119" viewBox="0 0 1200 119" fill="none" xmlns="http://www.w3.org/2000/svg">
<rect width="1200" height="120" fill="white" fill-opacity="0.9"/>
<rect x="524" y="36" width="150" height="48" fill="#81B3D2"/>
<rect x="576" y="36" width="46" height="48" fill="#81B3D2"/>
<rect x="628" y="36" width="46" height="48" fill="#81B3D2"/>
<path d="M605 53V49H601C598.791 49 597 50.7909 597 53V57H593V61H597V71H601V61H605V57H601V53H605Z" fill="white"/>
<path d="M549.95 53.1441C551.635 52.6481 552.934 53.4141 553.527 54.3231C554.2 54.0921 554.858 53.8421 555.538 53.6151C555.525 54.3015 555.212 54.9476 554.681 55.3831C555.366 55.5531 555.985 54.8921 555.985 54.8921C555.816 55.8921 554.979 56.6801 554.422 56.9161C554.191 63.6661 551.247 68.1331 544.345 67.9981H543.899C543.489 67.9981 539.735 67.5381 539.001 66.1111C541.272 66.3071 542.894 65.6891 543.694 64.9341C542.734 64.6341 541.015 64.4571 540.715 61.9841C541.064 62.0901 541.279 62.2121 541.905 62.1031C540.705 61.2471 539.374 60.5301 539.448 58.3301C539.733 58.6581 540.515 58.8661 540.788 58.8021C540.085 58.5611 538.818 55.4421 539.894 53.8501C541.712 55.7041 543.629 57.4561 547.046 57.6231C547.254 55.3301 548.183 53.7931 549.95 53.1441Z" fill="white"/>
<path fill-rule="evenodd" clip-rule="evenodd" d="M644 52H658C659.65 52 661 53.35 661 55V65C661 66.65 659.65 68 658 68H644C642.35 68 641 66.65 641 65V55C641 53.35 642.35 52 644 52ZM647.027 56.002V63.998L656.014 60L647.027 56.002Z" fill="white"/>
<path d="M142.573 65.862H138.289V78H135.412V65.862H131.107V63.3H142.573V65.862ZM144.072 63.3H152.787V65.862H146.949V69.285H152.262V71.847H146.949V75.438H152.892V78H144.072V63.3ZM162.729 65.862H159.6C159.544 67.192 159.481 68.403 159.411 69.495C159.341 70.587 159.243 71.574 159.117 72.456C159.005 73.324 158.851 74.094 158.655 74.766C158.459 75.438 158.207 76.019 157.899 76.509C157.703 76.831 157.479 77.097 157.227 77.307C156.989 77.517 156.737 77.685 156.471 77.811C156.205 77.937 155.939 78.021 155.673 78.063C155.421 78.119 155.183 78.147 154.959 78.147C154.637 78.147 154.364 78.119 154.14 78.063C153.93 78.021 153.72 77.951 153.51 77.853L153.825 75.375C153.909 75.403 153.993 75.424 154.077 75.438C154.161 75.452 154.245 75.459 154.329 75.459C154.553 75.459 154.77 75.403 154.98 75.291C155.204 75.179 155.393 74.99 155.547 74.724C155.757 74.416 155.939 73.968 156.093 73.38C156.247 72.778 156.38 72.015 156.492 71.091C156.618 70.167 156.716 69.068 156.786 67.794C156.856 66.506 156.905 65.008 156.933 63.3H165.606V78H162.729V65.862ZM168.82 69.012C168.82 68.522 168.974 68.137 169.282 67.857C169.59 67.563 169.996 67.416 170.5 67.416C171.032 67.416 171.452 67.563 171.76 67.857C172.068 68.137 172.222 68.522 172.222 69.012C172.222 69.502 172.068 69.894 171.76 70.188C171.452 70.482 171.032 70.629 170.5 70.629C169.996 70.629 169.59 70.482 169.282 70.188C168.974 69.894 168.82 69.502 168.82 69.012ZM168.82 76.614C168.82 76.124 168.974 75.739 169.282 75.459C169.59 75.165 169.996 75.018 170.5 75.018C171.032 75.018 171.452 75.165 171.76 75.459C172.068 75.739 172.222 76.124 172.222 76.614C172.222 77.104 172.068 77.496 171.76 77.79C171.452 78.084 171.032 78.231 170.5 78.231C169.996 78.231 169.59 78.084 169.282 77.79C168.974 77.496 168.82 77.104 168.82 76.614ZM178.721 69.726H182.123V66.177H184.58V69.726H188.003V72.078H184.58V75.669H182.123V72.078H178.721V69.726ZM191.077 78L195.886 66.681L196.81 65.652L195.55 65.862H190.153V63.3H199.624V64.098L193.744 78H191.077ZM205.575 82.62C204.931 81.948 204.385 81.206 203.937 80.394C203.489 79.596 203.125 78.777 202.845 77.937C202.579 77.083 202.383 76.229 202.257 75.375C202.131 74.507 202.068 73.681 202.068 72.897C202.068 72.127 202.131 71.315 202.257 70.461C202.383 69.607 202.586 68.753 202.866 67.899C203.146 67.031 203.51 66.184 203.958 65.358C204.42 64.532 204.98 63.762 205.638 63.048L207.402 64.182C206.912 64.84 206.499 65.526 206.163 66.24C205.841 66.954 205.575 67.689 205.365 68.445C205.169 69.187 205.022 69.936 204.924 70.692C204.84 71.448 204.798 72.183 204.798 72.897C204.798 73.569 204.847 74.283 204.945 75.039C205.043 75.795 205.197 76.551 205.407 77.307C205.617 78.049 205.89 78.777 206.226 79.491C206.562 80.205 206.968 80.856 207.444 81.444L205.575 82.62ZM219.291 73.905H216.981V78H214.44V73.905H208.077V72.351L214.734 63.195H216.981V71.721H219.291V73.905ZM214.44 68.508L214.629 66.744H214.545L213.831 68.256L211.647 71.091L210.597 71.889L211.941 71.721H214.44V68.508ZM220.538 67.899C220.538 67.185 220.643 66.527 220.853 65.925C221.077 65.323 221.392 64.812 221.798 64.392C222.218 63.958 222.722 63.622 223.31 63.384C223.912 63.132 224.598 63.006 225.368 63.006C226.95 63.006 228.189 63.482 229.085 64.434C229.995 65.372 230.45 66.744 230.45 68.55C230.45 70.174 230.24 71.581 229.82 72.771C229.414 73.947 228.861 74.934 228.161 75.732C227.475 76.516 226.677 77.118 225.767 77.538C224.857 77.958 223.898 78.21 222.89 78.294L222.302 76.152C223.072 76.054 223.758 75.865 224.36 75.585C224.962 75.305 225.48 74.962 225.914 74.556C226.348 74.136 226.698 73.667 226.964 73.149C227.244 72.617 227.44 72.05 227.552 71.448C227.216 71.812 226.852 72.064 226.46 72.204C226.082 72.344 225.571 72.414 224.927 72.414C224.395 72.414 223.863 72.323 223.331 72.141C222.813 71.959 222.344 71.686 221.924 71.322C221.518 70.944 221.182 70.475 220.916 69.915C220.664 69.341 220.538 68.669 220.538 67.899ZM223.184 67.752C223.184 68.55 223.408 69.152 223.856 69.558C224.304 69.964 224.864 70.167 225.536 70.167C226.11 70.167 226.579 70.076 226.943 69.894C227.307 69.712 227.587 69.488 227.783 69.222C227.825 68.928 227.846 68.648 227.846 68.382C227.846 67.99 227.797 67.605 227.699 67.227C227.601 66.849 227.447 66.513 227.237 66.219C227.041 65.925 226.782 65.694 226.46 65.526C226.152 65.344 225.781 65.253 225.347 65.253C224.661 65.253 224.129 65.477 223.751 65.925C223.373 66.359 223.184 66.968 223.184 67.752ZM236.128 75.879C237.052 75.879 237.759 75.655 238.249 75.207C238.739 74.759 238.984 74.143 238.984 73.359C238.984 72.519 238.697 71.903 238.123 71.511C237.549 71.119 236.73 70.923 235.666 70.923L234.007 70.986V63.3H241.231V65.862H236.359V68.697L237.22 68.613C237.906 68.641 238.522 68.767 239.068 68.991C239.628 69.215 240.104 69.53 240.496 69.936C240.888 70.328 241.189 70.811 241.399 71.385C241.609 71.945 241.714 72.575 241.714 73.275C241.714 74.101 241.574 74.829 241.294 75.459C241.014 76.089 240.622 76.614 240.118 77.034C239.628 77.454 239.047 77.769 238.375 77.979C237.703 78.189 236.968 78.294 236.17 78.294C235.54 78.294 234.938 78.238 234.364 78.126C233.804 78.028 233.328 77.888 232.936 77.706L233.671 75.438C233.993 75.578 234.343 75.69 234.721 75.774C235.113 75.844 235.582 75.879 236.128 75.879ZM245.502 63.048C246.146 63.72 246.692 64.462 247.14 65.274C247.588 66.072 247.945 66.898 248.211 67.752C248.491 68.592 248.694 69.446 248.82 70.314C248.946 71.168 249.009 71.987 249.009 72.771C249.009 73.541 248.946 74.353 248.82 75.207C248.694 76.061 248.491 76.922 248.211 77.79C247.931 78.644 247.56 79.484 247.098 80.31C246.65 81.136 246.097 81.906 245.439 82.62L243.675 81.465C244.193 80.765 244.62 80.051 244.956 79.323C245.292 78.609 245.558 77.888 245.754 77.16C245.95 76.418 246.083 75.683 246.153 74.955C246.237 74.213 246.279 73.485 246.279 72.771C246.279 72.099 246.223 71.392 246.111 70.65C246.013 69.894 245.859 69.145 245.649 68.403C245.439 67.647 245.166 66.919 244.83 66.219C244.508 65.505 244.116 64.847 243.654 64.245L245.502 63.048ZM266.504 73.443C266.504 74.129 266.385 74.766 266.147 75.354C265.923 75.942 265.601 76.453 265.181 76.887C264.761 77.321 264.25 77.664 263.648 77.916C263.06 78.168 262.409 78.294 261.695 78.294C260.967 78.294 260.295 78.182 259.679 77.958C259.077 77.72 258.552 77.37 258.104 76.908C257.656 76.446 257.306 75.865 257.054 75.165C256.802 74.465 256.676 73.653 256.676 72.729C256.676 71.343 256.872 70.09 257.264 68.97C257.67 67.85 258.209 66.877 258.881 66.051C259.567 65.211 260.358 64.539 261.254 64.035C262.164 63.517 263.123 63.174 264.131 63.006L264.74 65.169C264.04 65.281 263.396 65.498 262.808 65.82C262.22 66.142 261.695 66.527 261.233 66.975C260.785 67.423 260.4 67.927 260.078 68.487C259.77 69.033 259.553 69.6 259.427 70.188C259.707 69.838 260.071 69.544 260.519 69.306C260.967 69.054 261.527 68.928 262.199 68.928C262.829 68.928 263.41 69.026 263.942 69.222C264.474 69.418 264.929 69.712 265.307 70.104C265.685 70.482 265.979 70.951 266.189 71.511C266.399 72.071 266.504 72.715 266.504 73.443ZM263.858 73.59C263.858 72.022 263.088 71.238 261.548 71.238C260.988 71.238 260.512 71.364 260.12 71.616C259.742 71.868 259.476 72.162 259.322 72.498C259.294 72.652 259.28 72.785 259.28 72.897C259.28 73.009 259.28 73.121 259.28 73.233C259.28 73.569 259.329 73.905 259.427 74.241C259.525 74.563 259.665 74.857 259.847 75.123C260.043 75.375 260.288 75.585 260.582 75.753C260.876 75.907 261.226 75.984 261.632 75.984C262.29 75.984 262.822 75.76 263.228 75.312C263.648 74.864 263.858 74.29 263.858 73.59ZM278.419 73.443C278.419 74.129 278.3 74.766 278.062 75.354C277.838 75.942 277.516 76.453 277.096 76.887C276.676 77.321 276.165 77.664 275.563 77.916C274.975 78.168 274.324 78.294 273.61 78.294C272.882 78.294 272.21 78.182 271.594 77.958C270.992 77.72 270.467 77.37 270.019 76.908C269.571 76.446 269.221 75.865 268.969 75.165C268.717 74.465 268.591 73.653 268.591 72.729C268.591 71.343 268.787 70.09 269.179 68.97C269.585 67.85 270.124 66.877 270.796 66.051C271.482 65.211 272.273 64.539 273.169 64.035C274.079 63.517 275.038 63.174 276.046 63.006L276.655 65.169C275.955 65.281 275.311 65.498 274.723 65.82C274.135 66.142 273.61 66.527 273.148 66.975C272.7 67.423 272.315 67.927 271.993 68.487C271.685 69.033 271.468 69.6 271.342 70.188C271.622 69.838 271.986 69.544 272.434 69.306C272.882 69.054 273.442 68.928 274.114 68.928C274.744 68.928 275.325 69.026 275.857 69.222C276.389 69.418 276.844 69.712 277.222 70.104C277.6 70.482 277.894 70.951 278.104 71.511C278.314 72.071 278.419 72.715 278.419 73.443ZM275.773 73.59C275.773 72.022 275.003 71.238 273.463 71.238C272.903 71.238 272.427 71.364 272.035 71.616C271.657 71.868 271.391 72.162 271.237 72.498C271.209 72.652 271.195 72.785 271.195 72.897C271.195 73.009 271.195 73.121 271.195 73.233C271.195 73.569 271.244 73.905 271.342 74.241C271.44 74.563 271.58 74.857 271.762 75.123C271.958 75.375 272.203 75.585 272.497 75.753C272.791 75.907 273.141 75.984 273.547 75.984C274.205 75.984 274.737 75.76 275.143 75.312C275.563 74.864 275.773 74.29 275.773 73.59ZM290.334 73.443C290.334 74.129 290.215 74.766 289.977 75.354C289.753 75.942 289.431 76.453 289.011 76.887C288.591 77.321 288.08 77.664 287.478 77.916C286.89 78.168 286.239 78.294 285.525 78.294C284.797 78.294 284.125 78.182 283.509 77.958C282.907 77.72 282.382 77.37 281.934 76.908C281.486 76.446 281.136 75.865 280.884 75.165C280.632 74.465 280.506 73.653 280.506 72.729C280.506 71.343 280.702 70.09 281.094 68.97C281.5 67.85 282.039 66.877 282.711 66.051C283.397 65.211 284.188 64.539 285.084 64.035C285.994 63.517 286.953 63.174 287.961 63.006L288.57 65.169C287.87 65.281 287.226 65.498 286.638 65.82C286.05 66.142 285.525 66.527 285.063 66.975C284.615 67.423 284.23 67.927 283.908 68.487C283.6 69.033 283.383 69.6 283.257 70.188C283.537 69.838 283.901 69.544 284.349 69.306C284.797 69.054 285.357 68.928 286.029 68.928C286.659 68.928 287.24 69.026 287.772 69.222C288.304 69.418 288.759 69.712 289.137 70.104C289.515 70.482 289.809 70.951 290.019 71.511C290.229 72.071 290.334 72.715 290.334 73.443ZM287.688 73.59C287.688 72.022 286.918 71.238 285.378 71.238C284.818 71.238 284.342 71.364 283.95 71.616C283.572 71.868 283.306 72.162 283.152 72.498C283.124 72.652 283.11 72.785 283.11 72.897C283.11 73.009 283.11 73.121 283.11 73.233C283.11 73.569 283.159 73.905 283.257 74.241C283.355 74.563 283.495 74.857 283.677 75.123C283.873 75.375 284.118 75.585 284.412 75.753C284.706 75.907 285.056 75.984 285.462 75.984C286.12 75.984 286.652 75.76 287.058 75.312C287.478 74.864 287.688 74.29 287.688 73.59ZM292.463 70.755H297.734V73.17H292.463V70.755ZM299.736 70.629C299.736 68.053 300.177 66.142 301.059 64.896C301.941 63.636 303.208 63.006 304.86 63.006C306.624 63.006 307.919 63.629 308.745 64.875C309.571 66.107 309.984 68.025 309.984 70.629C309.984 73.219 309.536 75.144 308.64 76.404C307.758 77.664 306.491 78.294 304.839 78.294C303.089 78.294 301.801 77.636 300.975 76.32C300.149 74.99 299.736 73.093 299.736 70.629ZM302.466 70.629C302.466 72.337 302.648 73.66 303.012 74.598C303.39 75.522 304.006 75.984 304.86 75.984C305.686 75.984 306.288 75.557 306.666 74.703C307.058 73.849 307.254 72.491 307.254 70.629C307.254 68.935 307.072 67.626 306.708 66.702C306.344 65.778 305.721 65.316 304.839 65.316C303.999 65.316 303.39 65.75 303.012 66.618C302.648 67.486 302.466 68.823 302.466 70.629ZM312.933 75.69H315.852V67.395L316.167 65.967L315.159 67.206L313.29 68.487L312.135 66.912L316.923 63.048H318.456V75.69H321.312V78H312.933V75.69ZM323.861 70.755H329.132V73.17H323.861V70.755ZM341.214 73.443C341.214 74.129 341.095 74.766 340.857 75.354C340.633 75.942 340.311 76.453 339.891 76.887C339.471 77.321 338.96 77.664 338.358 77.916C337.77 78.168 337.119 78.294 336.405 78.294C335.677 78.294 335.005 78.182 334.389 77.958C333.787 77.72 333.262 77.37 332.814 76.908C332.366 76.446 332.016 75.865 331.764 75.165C331.512 74.465 331.386 73.653 331.386 72.729C331.386 71.343 331.582 70.09 331.974 68.97C332.38 67.85 332.919 66.877 333.591 66.051C334.277 65.211 335.068 64.539 335.964 64.035C336.874 63.517 337.833 63.174 338.841 63.006L339.45 65.169C338.75 65.281 338.106 65.498 337.518 65.82C336.93 66.142 336.405 66.527 335.943 66.975C335.495 67.423 335.11 67.927 334.788 68.487C334.48 69.033 334.263 69.6 334.137 70.188C334.417 69.838 334.781 69.544 335.229 69.306C335.677 69.054 336.237 68.928 336.909 68.928C337.539 68.928 338.12 69.026 338.652 69.222C339.184 69.418 339.639 69.712 340.017 70.104C340.395 70.482 340.689 70.951 340.899 71.511C341.109 72.071 341.214 72.715 341.214 73.443ZM338.568 73.59C338.568 72.022 337.798 71.238 336.258 71.238C335.698 71.238 335.222 71.364 334.83 71.616C334.452 71.868 334.186 72.162 334.032 72.498C334.004 72.652 333.99 72.785 333.99 72.897C333.99 73.009 333.99 73.121 333.99 73.233C333.99 73.569 334.039 73.905 334.137 74.241C334.235 74.563 334.375 74.857 334.557 75.123C334.753 75.375 334.998 75.585 335.292 75.753C335.586 75.907 335.936 75.984 336.342 75.984C337 75.984 337.532 75.76 337.938 75.312C338.358 74.864 338.568 74.29 338.568 73.59ZM353.129 73.443C353.129 74.129 353.01 74.766 352.772 75.354C352.548 75.942 352.226 76.453 351.806 76.887C351.386 77.321 350.875 77.664 350.273 77.916C349.685 78.168 349.034 78.294 348.32 78.294C347.592 78.294 346.92 78.182 346.304 77.958C345.702 77.72 345.177 77.37 344.729 76.908C344.281 76.446 343.931 75.865 343.679 75.165C343.427 74.465 343.301 73.653 343.301 72.729C343.301 71.343 343.497 70.09 343.889 68.97C344.295 67.85 344.834 66.877 345.506 66.051C346.192 65.211 346.983 64.539 347.879 64.035C348.789 63.517 349.748 63.174 350.756 63.006L351.365 65.169C350.665 65.281 350.021 65.498 349.433 65.82C348.845 66.142 348.32 66.527 347.858 66.975C347.41 67.423 347.025 67.927 346.703 68.487C346.395 69.033 346.178 69.6 346.052 70.188C346.332 69.838 346.696 69.544 347.144 69.306C347.592 69.054 348.152 68.928 348.824 68.928C349.454 68.928 350.035 69.026 350.567 69.222C351.099 69.418 351.554 69.712 351.932 70.104C352.31 70.482 352.604 70.951 352.814 71.511C353.024 72.071 353.129 72.715 353.129 73.443ZM350.483 73.59C350.483 72.022 349.713 71.238 348.173 71.238C347.613 71.238 347.137 71.364 346.745 71.616C346.367 71.868 346.101 72.162 345.947 72.498C345.919 72.652 345.905 72.785 345.905 72.897C345.905 73.009 345.905 73.121 345.905 73.233C345.905 73.569 345.954 73.905 346.052 74.241C346.15 74.563 346.29 74.857 346.472 75.123C346.668 75.375 346.913 75.585 347.207 75.753C347.501 75.907 347.851 75.984 348.257 75.984C348.915 75.984 349.447 75.76 349.853 75.312C350.273 74.864 350.483 74.29 350.483 73.59Z" fill="black"/>
<path d="M138.127 38.695H136.258L135.502 41.929H133.255L134.011 38.695H132.457L132.919 36.658H134.494L135.019 34.432H133.507L133.969 32.395H135.502L136.237 29.371H138.463L137.749 32.395H139.618L140.353 29.371H142.579L141.865 32.395H143.377L142.852 34.432H141.382L140.857 36.658H142.306L141.802 38.695H140.374L139.618 41.929H137.371L138.127 38.695ZM136.741 36.658H138.61L139.135 34.432H137.266L136.741 36.658ZM150.063 36.931L150.441 39.43H150.546L150.966 36.91L153.78 28.3H156.804L151.344 43.105H149.286L143.784 28.3H147.123L150.063 36.931ZM158.159 28.3H161.036V43H158.159V28.3ZM170.196 39.052C170.196 38.604 170.028 38.24 169.692 37.96C169.37 37.68 168.957 37.428 168.453 37.204C167.963 36.966 167.424 36.728 166.836 36.49C166.262 36.238 165.723 35.937 165.219 35.587C164.729 35.223 164.316 34.775 163.98 34.243C163.658 33.711 163.497 33.032 163.497 32.206C163.497 31.492 163.616 30.876 163.854 30.358C164.092 29.826 164.428 29.385 164.862 29.035C165.31 28.685 165.835 28.426 166.437 28.258C167.039 28.09 167.711 28.006 168.453 28.006C169.307 28.006 170.112 28.083 170.868 28.237C171.624 28.377 172.247 28.587 172.737 28.867L171.834 31.282C171.526 31.086 171.064 30.911 170.448 30.757C169.832 30.589 169.167 30.505 168.453 30.505C167.781 30.505 167.263 30.638 166.899 30.904C166.549 31.17 166.374 31.527 166.374 31.975C166.374 32.395 166.535 32.745 166.857 33.025C167.193 33.305 167.606 33.564 168.096 33.802C168.6 34.04 169.139 34.285 169.713 34.537C170.301 34.789 170.84 35.097 171.33 35.461C171.834 35.811 172.247 36.252 172.569 36.784C172.905 37.302 173.073 37.953 173.073 38.737C173.073 39.521 172.94 40.2 172.674 40.774C172.422 41.334 172.058 41.803 171.582 42.181C171.12 42.559 170.553 42.839 169.881 43.021C169.223 43.203 168.495 43.294 167.697 43.294C166.647 43.294 165.723 43.196 164.925 43C164.127 42.804 163.539 42.608 163.161 42.412L164.085 39.955C164.239 40.039 164.435 40.13 164.673 40.228C164.925 40.326 165.205 40.417 165.513 40.501C165.821 40.585 166.143 40.655 166.479 40.711C166.829 40.767 167.186 40.795 167.55 40.795C168.404 40.795 169.055 40.655 169.503 40.375C169.965 40.081 170.196 39.64 170.196 39.052ZM175.283 28.3H178.16V43H175.283V28.3ZM191.415 30.862H187.131V43H184.254V30.862H179.949V28.3H191.415V30.862ZM199.255 39.052C199.255 38.604 199.087 38.24 198.751 37.96C198.429 37.68 198.016 37.428 197.512 37.204C197.022 36.966 196.483 36.728 195.895 36.49C195.321 36.238 194.782 35.937 194.278 35.587C193.788 35.223 193.375 34.775 193.039 34.243C192.717 33.711 192.556 33.032 192.556 32.206C192.556 31.492 192.675 30.876 192.913 30.358C193.151 29.826 193.487 29.385 193.921 29.035C194.369 28.685 194.894 28.426 195.496 28.258C196.098 28.09 196.77 28.006 197.512 28.006C198.366 28.006 199.171 28.083 199.927 28.237C200.683 28.377 201.306 28.587 201.796 28.867L200.893 31.282C200.585 31.086 200.123 30.911 199.507 30.757C198.891 30.589 198.226 30.505 197.512 30.505C196.84 30.505 196.322 30.638 195.958 30.904C195.608 31.17 195.433 31.527 195.433 31.975C195.433 32.395 195.594 32.745 195.916 33.025C196.252 33.305 196.665 33.564 197.155 33.802C197.659 34.04 198.198 34.285 198.772 34.537C199.36 34.789 199.899 35.097 200.389 35.461C200.893 35.811 201.306 36.252 201.628 36.784C201.964 37.302 202.132 37.953 202.132 38.737C202.132 39.521 201.999 40.2 201.733 40.774C201.481 41.334 201.117 41.803 200.641 42.181C200.179 42.559 199.612 42.839 198.94 43.021C198.282 43.203 197.554 43.294 196.756 43.294C195.706 43.294 194.782 43.196 193.984 43C193.186 42.804 192.598 42.608 192.22 42.412L193.144 39.955C193.298 40.039 193.494 40.13 193.732 40.228C193.984 40.326 194.264 40.417 194.572 40.501C194.88 40.585 195.202 40.655 195.538 40.711C195.888 40.767 196.245 40.795 196.609 40.795C197.463 40.795 198.114 40.655 198.562 40.375C199.024 40.081 199.255 39.64 199.255 39.052ZM204.049 28.3H212.764V30.862H206.926V34.285H212.239V36.847H206.926V40.438H212.869V43H204.049V28.3ZM215.021 28.3C215.315 28.258 215.644 28.223 216.008 28.195C216.386 28.167 216.771 28.146 217.163 28.132C217.555 28.118 217.933 28.111 218.297 28.111C218.675 28.097 219.011 28.09 219.305 28.09C220.607 28.09 221.72 28.272 222.644 28.636C223.568 29 224.317 29.511 224.891 30.169C225.465 30.827 225.885 31.611 226.151 32.521C226.417 33.431 226.55 34.432 226.55 35.524C226.55 36.518 226.424 37.477 226.172 38.401C225.92 39.325 225.5 40.144 224.912 40.858C224.324 41.572 223.547 42.146 222.581 42.58C221.629 43.014 220.446 43.231 219.032 43.231C218.808 43.231 218.507 43.224 218.129 43.21C217.765 43.196 217.38 43.175 216.974 43.147C216.582 43.133 216.204 43.112 215.84 43.084C215.476 43.07 215.203 43.049 215.021 43.021V28.3ZM219.536 30.652C219.228 30.652 218.913 30.659 218.591 30.673C218.283 30.687 218.052 30.708 217.898 30.736V40.585C217.954 40.599 218.045 40.613 218.171 40.627C218.311 40.627 218.458 40.634 218.612 40.648C218.766 40.648 218.913 40.655 219.053 40.669C219.193 40.669 219.298 40.669 219.368 40.669C220.18 40.669 220.852 40.529 221.384 40.249C221.93 39.955 222.357 39.57 222.665 39.094C222.987 38.618 223.211 38.072 223.337 37.456C223.463 36.826 223.526 36.182 223.526 35.524C223.526 34.95 223.47 34.376 223.358 33.802C223.246 33.214 223.036 32.689 222.728 32.227C222.434 31.765 222.028 31.387 221.51 31.093C220.992 30.799 220.334 30.652 219.536 30.652ZM228.155 35.65C228.155 33.2 228.694 31.317 229.772 30.001C230.85 28.671 232.39 28.006 234.392 28.006C235.442 28.006 236.359 28.188 237.143 28.552C237.927 28.916 238.578 29.434 239.096 30.106C239.614 30.778 239.999 31.583 240.251 32.521C240.503 33.459 240.629 34.502 240.629 35.65C240.629 38.1 240.083 39.99 238.991 41.32C237.913 42.636 236.38 43.294 234.392 43.294C233.328 43.294 232.404 43.112 231.62 42.748C230.836 42.384 230.185 41.866 229.667 41.194C229.163 40.522 228.785 39.717 228.533 38.779C228.281 37.841 228.155 36.798 228.155 35.65ZM231.179 35.65C231.179 36.392 231.242 37.078 231.368 37.708C231.494 38.324 231.683 38.856 231.935 39.304C232.201 39.752 232.537 40.102 232.943 40.354C233.349 40.606 233.832 40.732 234.392 40.732C235.414 40.732 236.205 40.333 236.765 39.535C237.325 38.737 237.605 37.442 237.605 35.65C237.605 34.936 237.542 34.271 237.416 33.655C237.304 33.039 237.122 32.5 236.87 32.038C236.618 31.576 236.289 31.219 235.883 30.967C235.477 30.701 234.98 30.568 234.392 30.568C233.37 30.568 232.579 30.981 232.019 31.807C231.459 32.619 231.179 33.9 231.179 35.65ZM246.34 35.335L245.185 33.025H245.08L245.416 35.335V43H242.686V28.195H244.786L250.351 36.028L251.464 38.275H251.569L251.233 36.028V28.3H253.963V43.105H251.863L246.34 35.335ZM263.733 39.745H259.218L258.105 43H255.228L260.52 28.195H262.641L267.933 43H264.909L263.733 39.745ZM259.953 37.435H263.103L262.011 34.159L261.57 31.849H261.465L261.024 34.18L259.953 37.435Z" fill="black"/>
<path d="M905.221 62.766L905.445 64.39H905.459L905.697 62.738L907.713 56.2H908.273L910.303 62.766L910.541 64.39H910.555L910.807 62.738L912.459 56.2H913.593L910.863 66.154H910.219L908.231 59.588L907.979 58.104H907.909L907.657 59.602L905.669 66.154H905.025L902.225 56.2H903.457L905.221 62.766ZM914.897 56.2H920.231V57.236H916.059V60.442H919.881V61.478H916.059V64.964H920.301V66H914.897V56.2ZM928.311 58.44C928.311 58.6733 928.274 58.9113 928.199 59.154C928.124 59.3967 928.012 59.6253 927.863 59.84C927.714 60.0453 927.522 60.2273 927.289 60.386C927.056 60.5447 926.78 60.666 926.463 60.75V60.806C926.743 60.8527 927.009 60.932 927.261 61.044C927.522 61.156 927.751 61.31 927.947 61.506C928.143 61.702 928.302 61.94 928.423 62.22C928.544 62.5 928.605 62.8313 928.605 63.214C928.605 63.718 928.498 64.1567 928.283 64.53C928.078 64.894 927.802 65.1927 927.457 65.426C927.121 65.6593 926.734 65.832 926.295 65.944C925.856 66.056 925.408 66.112 924.951 66.112C924.792 66.112 924.606 66.112 924.391 66.112C924.176 66.112 923.952 66.1027 923.719 66.084C923.486 66.0747 923.252 66.056 923.019 66.028C922.786 66.0093 922.58 65.9767 922.403 65.93V56.284C922.748 56.228 923.15 56.1813 923.607 56.144C924.064 56.1067 924.564 56.088 925.105 56.088C925.469 56.088 925.838 56.1207 926.211 56.186C926.594 56.242 926.939 56.3587 927.247 56.536C927.555 56.704 927.807 56.942 928.003 57.25C928.208 57.558 928.311 57.9547 928.311 58.44ZM925.063 65.104C925.362 65.104 925.651 65.0713 925.931 65.006C926.211 64.9313 926.458 64.8193 926.673 64.67C926.888 64.5113 927.056 64.32 927.177 64.096C927.308 63.872 927.373 63.606 927.373 63.298C927.373 62.9153 927.294 62.6073 927.135 62.374C926.986 62.1407 926.785 61.9587 926.533 61.828C926.29 61.6973 926.015 61.6087 925.707 61.562C925.399 61.5153 925.091 61.492 924.783 61.492H923.565V65.006C923.63 65.0247 923.724 65.0387 923.845 65.048C923.966 65.0573 924.097 65.0667 924.237 65.076C924.377 65.0853 924.522 65.0947 924.671 65.104C924.82 65.104 924.951 65.104 925.063 65.104ZM924.293 60.512C924.452 60.512 924.643 60.5073 924.867 60.498C925.091 60.4887 925.278 60.4747 925.427 60.456C925.651 60.3813 925.861 60.2927 926.057 60.19C926.253 60.078 926.426 59.952 926.575 59.812C926.734 59.6627 926.855 59.4947 926.939 59.308C927.032 59.112 927.079 58.902 927.079 58.678C927.079 58.37 927.018 58.118 926.897 57.922C926.785 57.7167 926.631 57.5533 926.435 57.432C926.239 57.3107 926.015 57.2267 925.763 57.18C925.511 57.124 925.254 57.096 924.993 57.096C924.685 57.096 924.4 57.1053 924.139 57.124C923.887 57.1333 923.696 57.152 923.565 57.18V60.512H924.293ZM935.003 63.508C935.003 63.116 934.886 62.7987 934.653 62.556C934.419 62.304 934.125 62.0847 933.771 61.898C933.425 61.702 933.047 61.52 932.637 61.352C932.226 61.184 931.843 60.9833 931.489 60.75C931.143 60.5073 930.854 60.2133 930.621 59.868C930.387 59.5133 930.271 59.0653 930.271 58.524C930.271 57.7587 930.537 57.152 931.069 56.704C931.601 56.256 932.357 56.032 933.337 56.032C933.906 56.032 934.424 56.074 934.891 56.158C935.357 56.242 935.721 56.3493 935.983 56.48L935.633 57.502C935.418 57.3993 935.101 57.3013 934.681 57.208C934.27 57.1147 933.803 57.068 933.281 57.068C932.665 57.068 932.203 57.208 931.895 57.488C931.587 57.7587 931.433 58.0807 931.433 58.454C931.433 58.818 931.549 59.1213 931.783 59.364C932.016 59.6067 932.305 59.826 932.651 60.022C933.005 60.2087 933.388 60.3953 933.799 60.582C934.209 60.7687 934.587 60.988 934.933 61.24C935.287 61.4827 935.581 61.7767 935.815 62.122C936.048 62.4673 936.165 62.8967 936.165 63.41C936.165 63.83 936.09 64.208 935.941 64.544C935.791 64.88 935.572 65.1693 935.283 65.412C934.993 65.6547 934.643 65.8413 934.233 65.972C933.822 66.1027 933.355 66.168 932.833 66.168C932.133 66.168 931.554 66.112 931.097 66C930.639 65.8973 930.285 65.7807 930.033 65.65L930.425 64.6C930.639 64.7213 930.957 64.8427 931.377 64.964C931.797 65.076 932.268 65.132 932.791 65.132C933.099 65.132 933.388 65.104 933.659 65.048C933.929 64.9827 934.163 64.8847 934.359 64.754C934.555 64.614 934.709 64.4413 934.821 64.236C934.942 64.0307 935.003 63.788 935.003 63.508ZM938.282 56.2H939.444V66H938.282V56.2ZM948.418 57.236H945.366V66H944.204V57.236H941.152V56.2H948.418V57.236ZM949.856 56.2H955.19V57.236H951.018V60.442H954.84V61.478H951.018V64.964H955.26V66H949.856V56.2ZM967.002 58.44C967.002 58.6733 966.965 58.9113 966.89 59.154C966.816 59.3967 966.704 59.6253 966.554 59.84C966.405 60.0453 966.214 60.2273 965.98 60.386C965.747 60.5447 965.472 60.666 965.154 60.75V60.806C965.434 60.8527 965.7 60.932 965.952 61.044C966.214 61.156 966.442 61.31 966.638 61.506C966.834 61.702 966.993 61.94 967.114 62.22C967.236 62.5 967.296 62.8313 967.296 63.214C967.296 63.718 967.189 64.1567 966.974 64.53C966.769 64.894 966.494 65.1927 966.148 65.426C965.812 65.6593 965.425 65.832 964.986 65.944C964.548 66.056 964.1 66.112 963.642 66.112C963.484 66.112 963.297 66.112 963.082 66.112C962.868 66.112 962.644 66.1027 962.41 66.084C962.177 66.0747 961.944 66.056 961.71 66.028C961.477 66.0093 961.272 65.9767 961.094 65.93V56.284C961.44 56.228 961.841 56.1813 962.298 56.144C962.756 56.1067 963.255 56.088 963.796 56.088C964.16 56.088 964.529 56.1207 964.902 56.186C965.285 56.242 965.63 56.3587 965.938 56.536C966.246 56.704 966.498 56.942 966.694 57.25C966.9 57.558 967.002 57.9547 967.002 58.44ZM963.754 65.104C964.053 65.104 964.342 65.0713 964.622 65.006C964.902 64.9313 965.15 64.8193 965.364 64.67C965.579 64.5113 965.747 64.32 965.868 64.096C965.999 63.872 966.064 63.606 966.064 63.298C966.064 62.9153 965.985 62.6073 965.826 62.374C965.677 62.1407 965.476 61.9587 965.224 61.828C964.982 61.6973 964.706 61.6087 964.398 61.562C964.09 61.5153 963.782 61.492 963.474 61.492H962.256V65.006C962.322 65.0247 962.415 65.0387 962.536 65.048C962.658 65.0573 962.788 65.0667 962.928 65.076C963.068 65.0853 963.213 65.0947 963.362 65.104C963.512 65.104 963.642 65.104 963.754 65.104ZM962.984 60.512C963.143 60.512 963.334 60.5073 963.558 60.498C963.782 60.4887 963.969 60.4747 964.118 60.456C964.342 60.3813 964.552 60.2927 964.748 60.19C964.944 60.078 965.117 59.952 965.266 59.812C965.425 59.6627 965.546 59.4947 965.63 59.308C965.724 59.112 965.77 58.902 965.77 58.678C965.77 58.37 965.71 58.118 965.588 57.922C965.476 57.7167 965.322 57.5533 965.126 57.432C964.93 57.3107 964.706 57.2267 964.454 57.18C964.202 57.124 963.946 57.096 963.684 57.096C963.376 57.096 963.092 57.1053 962.83 57.124C962.578 57.1333 962.387 57.152 962.256 57.18V60.512H962.984ZM971.426 62.108L968.192 56.2H969.55L971.846 60.484L972.084 61.338H972.098L972.35 60.456L974.548 56.2H975.794L972.588 62.094V66H971.426V62.108Z" fill="black"/>
<path fill-rule="evenodd" clip-rule="evenodd" d="M999.52 39.0574H999.351L984 40.719V69.4945L999.351 78.8382L1014.7 69.4945V40.719L999.52 39.0574ZM1061.02 40.6218H1059.09V53.7311H1061.02V40.6218ZM1024.86 40.6326V45.7684C1025.61 44.9864 1026.64 44.5436 1027.71 44.5384C1028.68 44.4791 1029.63 44.845 1030.33 45.5448C1031.02 46.2446 1031.39 47.2124 1031.34 48.2068V53.7634H1029.37V48.4658C1029.42 47.949 1029.28 47.4306 1028.96 47.0255C1028.64 46.6205 1028.17 46.3622 1027.67 46.3079H1027.35C1026.35 46.3698 1025.43 46.9295 1024.9 47.8076V53.7634H1022.9V40.6326H1024.86ZM1061.02 69.4837H1059.28V68.0595C1058.48 69.1353 1057.23 69.7538 1055.91 69.7211C1053.48 69.5528 1051.58 67.4822 1051.58 64.9845C1051.58 62.4867 1053.48 60.4162 1055.91 60.2479C1057.12 60.2052 1058.28 60.7203 1059.08 61.6505V56.3205H1061.02V69.4837ZM1031.07 68.0595C1031.26 68.0515 1031.46 68.0152 1031.65 67.9516V69.3866C1031.25 69.5404 1030.83 69.6172 1030.4 69.6132C1029.65 69.6769 1028.94 69.2429 1028.64 68.5342C1027.7 69.31 1026.53 69.7227 1025.33 69.6995C1023.73 69.6995 1022.26 68.804 1022.26 66.9482C1022.26 64.65 1024.37 63.9379 1026.17 63.9379C1026.94 63.9505 1027.71 64.0408 1028.46 64.2076V63.884C1028.46 62.805 1027.66 61.9742 1026.15 61.9742C1025.06 61.9764 1023.98 62.2116 1022.98 62.6647V60.8305C1024.07 60.451 1025.2 60.2506 1026.35 60.2371C1028.84 60.2371 1030.37 61.4455 1030.37 64.1753V67.4121C1030.35 67.5668 1030.4 67.721 1030.5 67.8406C1030.6 67.9601 1030.73 68.035 1030.89 68.0487H1031.07V68.0595ZM1024.27 66.8403C1024.3 67.229 1024.48 67.5905 1024.77 67.844C1025.06 68.0974 1025.43 68.2217 1025.81 68.189H1025.93C1026.88 68.1906 1027.8 67.8022 1028.47 67.11V65.5779C1027.84 65.4414 1027.2 65.3655 1026.56 65.3513C1025.51 65.3513 1024.28 65.7074 1024.28 66.8403H1024.27ZM1040.02 60.9384C1039.2 60.4632 1038.26 60.2246 1037.31 60.2479H1036.94C1035.73 60.2873 1034.59 60.8166 1033.76 61.7192C1032.93 62.6218 1032.49 63.8236 1032.53 65.06V65.5024C1032.7 68.0004 1034.81 69.8921 1037.25 69.7318C1038.25 69.7555 1039.25 69.5452 1040.16 69.1168V67.2718C1039.38 67.7215 1038.49 67.9591 1037.6 67.9624C1036.52 68.0288 1035.5 67.4793 1034.94 66.5356C1034.38 65.5918 1034.38 64.4095 1034.94 63.4658C1035.5 62.522 1036.52 61.9725 1037.6 62.039C1038.46 62.0357 1039.31 62.2989 1040.02 62.7942V60.9384ZM1050.15 68.0595C1050.35 68.0515 1050.54 68.0152 1050.73 67.9516V69.3866C1050.33 69.5404 1049.91 69.6172 1049.49 69.6132C1048.73 69.6769 1048.03 69.2429 1047.72 68.5342C1046.79 69.31 1045.62 69.7227 1044.41 69.6995C1042.82 69.6995 1041.34 68.804 1041.34 66.9482C1041.34 64.65 1043.45 63.9379 1045.26 63.9379C1046.03 63.9505 1046.79 64.0408 1047.55 64.2076V63.884C1047.55 62.805 1046.74 61.9742 1045.23 61.9742C1044.14 61.9764 1043.07 62.2116 1042.07 62.6647V60.8305C1043.15 60.451 1044.29 60.2506 1045.44 60.2371C1047.93 60.2371 1049.46 61.4455 1049.46 64.1753V67.4121C1049.44 67.5668 1049.49 67.721 1049.58 67.8406C1049.68 67.9601 1049.82 68.035 1049.97 68.0487H1050.15V68.0595ZM1043.86 67.8481C1043.56 67.5943 1043.38 67.2311 1043.36 66.8403H1043.38C1043.38 65.7074 1044.54 65.3513 1045.66 65.3513C1046.3 65.3655 1046.94 65.4414 1047.57 65.5779V67.11C1046.89 67.8022 1045.98 68.1906 1045.02 68.189H1044.91C1044.53 68.2247 1044.15 68.1019 1043.86 67.8481ZM1053.33 64.9305C1053.33 63.2859 1054.63 61.9526 1056.24 61.9526L1056.26 62.0066C1057.47 62.0066 1058.57 62.7382 1059.07 63.8732V66.0311C1058.59 67.1871 1057.47 67.9296 1056.24 67.9084C1054.63 67.9084 1053.33 66.5752 1053.33 64.9305ZM1067.35 60.2479C1070.84 60.2479 1072.05 63.1395 1071.48 65.7397H1064.92C1065.14 67.3582 1066.68 68.0163 1068.29 68.0163C1069.25 68.0196 1070.2 67.8021 1071.07 67.3797V69.1061C1070.07 69.5421 1068.99 69.7519 1067.91 69.7211C1065.24 69.7211 1062.9 68.189 1062.9 64.9521C1062.84 63.7502 1063.25 62.5736 1064.04 61.6841C1064.83 60.7945 1065.94 60.2658 1067.12 60.2155H1067.35V60.2479ZM1064.87 64.1753C1064.97 62.8237 1066.12 61.8104 1067.44 61.9095H1067.49C1068.11 61.8531 1068.72 62.08 1069.16 62.5295C1069.6 62.979 1069.83 63.6051 1069.78 64.24H1064.87V64.1753ZM1073.49 69.4621V60.4961H1075.23V61.575C1075.98 60.7197 1077.04 60.2229 1078.16 60.2047C1079.3 60.1328 1080.37 60.7163 1080.95 61.7153C1081.74 60.8335 1082.85 60.3161 1084.02 60.2803C1084.95 60.2327 1085.86 60.6011 1086.51 61.2901C1087.15 61.9792 1087.48 62.9213 1087.39 63.8732V69.4837H1085.39V63.9271C1085.44 63.4734 1085.31 63.0191 1085.02 62.6647C1084.74 62.3104 1084.34 62.0852 1083.89 62.039H1083.62C1082.75 62.0941 1081.95 62.536 1081.43 63.2474V69.4837H1079.43V63.9271C1079.47 63.47 1079.34 63.0139 1079.05 62.6611C1078.76 62.3082 1078.35 62.088 1077.9 62.0497H1077.69C1076.75 62.1344 1075.89 62.6449 1075.36 63.4416V69.5161H1073.53L1073.49 69.4621ZM1097.98 60.4745H1095.97L1093.32 67.2718L1090.31 60.4853H1088.2L1092.42 69.5484L1092.24 70.0016C1091.72 71.3611 1091 72.0516 1090.05 72.0516C1089.75 72.0548 1089.45 72.0112 1089.16 71.9221V73.6161C1089.54 73.7125 1089.93 73.7632 1090.32 73.7671C1091.65 73.7671 1092.9 73.0226 1093.85 70.6813L1097.98 60.4745ZM1036.69 44.7866V41.5497L1034.73 42.0137V44.7326H1033.14V46.4913H1034.79V50.9905C1034.72 51.817 1035.02 52.6301 1035.61 53.2038C1036.2 53.7775 1037 54.0505 1037.81 53.9468C1038.6 53.9535 1039.39 53.8259 1040.14 53.5692V51.8429C1039.57 52.0781 1038.97 52.199 1038.36 52.199C1037.22 52.199 1036.69 51.8105 1036.69 50.6237V46.5129H1039.85V44.7866H1036.69ZM1042.39 53.7526V44.7542H1044.14V45.8332C1044.88 44.9766 1045.94 44.476 1047.06 44.4521C1048.16 44.381 1049.21 44.9314 1049.8 45.8871C1050.6 45.0053 1051.7 44.4879 1052.87 44.4521C1053.81 44.4146 1054.72 44.7986 1055.36 45.5035C1056 46.2085 1056.31 47.1642 1056.21 48.1205V53.7418H1054.2V48.1853C1054.25 47.7315 1054.12 47.2772 1053.84 46.9229C1053.56 46.5685 1053.15 46.3433 1052.7 46.2971H1052.46C1051.6 46.3523 1050.8 46.7942 1050.28 47.5055V53.7418H1048.27V48.1853C1048.32 47.7315 1048.19 47.2772 1047.91 46.9229C1047.63 46.5685 1047.22 46.3433 1046.78 46.2971H1046.53C1045.59 46.3818 1044.74 46.8923 1044.2 47.689V53.7634H1042.39V53.7526ZM1012.7 68.3033L1012.71 68.2968L1012.7 68.3184V68.3033ZM1012.7 56.3205V68.3033L999.351 76.4321L986.005 68.3184V56.5147L999.288 64.6068V66.0311L990.183 60.5284V61.9418L999.34 67.5632V69.0629L990.193 63.4955V64.9521L999.351 70.5734L1008.58 64.9197V58.8129L1012.7 56.3205ZM1012.71 54.7776L1009.04 56.9355L1007.35 58.0145L999.309 53.0837V54.4971L1006.16 58.7266L1006.01 58.8237L1004.95 59.4063L999.288 55.9537V57.3995L1003.76 60.1184L1002.71 60.8413L999.33 58.7913V60.2047L1001.55 61.5426L999.298 62.9021L986.11 54.864L999.309 46.7287L1012.71 54.7776ZM999.288 45.2721L1012.71 53.3534V42.564L999.361 41.129L986.015 42.564V53.3534L999.288 45.2721Z" fill="#231F20"/>
</svg>
